<svg xmlns="http://www.w3.org/2000/svg" width="24" height="24" fill="none" viewBox="0 0 24 24" id="github"><path stroke="#000" stroke-linecap="round" stroke-linejoin="round" stroke-width="2" d="M19.9551 7.00001C20.8193 5.66667 20.4736 4 19.9551 3C17.881 3 16.3255 4.33334 15.807 5H12.1852C11.6667 4.33334 10.1111 3 8.03705 3C7.51853 4 7.17286 5.66667 8.03705 7.00001C7.37872 7.75125 7 8.97593 7 9.99999C7 14.8918 10.1109 14.9977 14 14.9999M14.2593 15C14.1725 15 14.086 15 14 14.9999M14 14.9999C13.9139 15 13.8275 15 13.7407 15M14 14.9999C17.8891 14.9977 21 14.8918 21 9.99999C21 8.97593 20.6213 7.75125 19.9629 7.00001M14 14.9999C16.2091 14.9999 18 16.7909 18 19V21M14 14.9999C11.7909 14.9999 10 16.7909 10 19M10 21V19M10 19H8.5C7.11929 19 6 17.8807 6 16.5C6 15.1193 4.88071 14 3.5 14H3"></path></svg>